<svg width="22" height="21" viewBox="0 0 22 21" fill="none" xmlns="http://www.w3.org/2000/svg">
<path d="M0.554688 17.4312C0.554688 12.81 0.554688 8.18466 0.554688 3.56341C0.566924 3.53486 0.587318 3.50223 0.591396 3.47368C0.856517 1.78099 1.94555 0.573669 3.5893 0.157633C3.74429 0.116846 3.90336 0.0882943 4.06244 0.0556641C8.68369 0.0556641 13.309 0.0556641 17.9303 0.0556641C17.9588 0.0679004 17.9915 0.0882943 18.02 0.092373C19.7127 0.357493 20.92 1.44653 21.332 3.09435C21.3728 3.24935 21.4013 3.40842 21.4339 3.56749C21.4339 8.18874 21.4339 12.8141 21.4339 17.4353C21.4217 17.4639 21.4013 17.4965 21.3972 17.5251C21.1321 19.2178 20.0431 20.4251 18.3953 20.837C18.2403 20.8778 18.0812 20.9064 17.9221 20.939C13.3009 20.939 8.67553 20.939 4.05428 20.939C4.02573 20.9268 3.9931 20.9064 3.96454 20.9023C2.27185 20.6372 1.06453 19.5481 0.652578 17.9003C0.619948 17.7453 0.587318 17.5903 0.554688 17.4312ZM19.8228 7.27918C19.8269 7.21392 19.8351 7.17313 19.8351 7.13234C19.8351 6.09225 19.8391 5.05216 19.8351 4.01208C19.8351 3.84485 19.8187 3.66946 19.782 3.50631C19.5414 2.38057 18.6114 1.65862 17.4 1.65862C13.1296 1.65862 8.86315 1.65862 4.59268 1.65862C4.39689 1.65862 4.19703 1.67086 4.00533 1.71165C2.89998 1.94822 2.16988 2.86186 2.15765 4.03247C2.14949 5.06032 2.15357 6.0841 2.15765 7.11195C2.15765 7.16497 2.16988 7.21392 2.17396 7.26286C2.21067 7.27102 2.23106 7.2751 2.25146 7.2751C3.27931 7.2751 4.30308 7.27918 5.33093 7.27102C5.40027 7.27102 5.48593 7.20168 5.53079 7.14458C5.7225 6.89577 5.88157 6.62249 6.08551 6.39C7.63544 4.59942 9.60141 3.82445 11.9426 4.15076C13.8882 4.42403 15.381 5.46004 16.4374 7.11603C16.519 7.24247 16.6006 7.28733 16.7474 7.28326C17.1757 7.2751 17.604 7.27918 18.0322 7.27918C18.6196 7.27918 19.211 7.27918 19.8228 7.27918ZM10.9923 5.6803C8.33291 5.68437 6.17932 7.84205 6.17932 10.5136C6.17932 13.1485 8.36146 15.3184 11.0086 15.3144C13.6394 15.3103 15.8134 13.1363 15.8093 10.5096C15.8134 7.84613 13.6516 5.6803 10.9923 5.6803Z" fill="white"/>
<path d="M19.0318 4.0856C19.0318 4.34256 19.0359 4.6036 19.0318 4.86057C19.0196 5.32555 18.7014 5.66408 18.2364 5.67632C17.694 5.69264 17.1474 5.69264 16.6049 5.67632C16.1603 5.66408 15.834 5.34186 15.8218 4.8932C15.8055 4.34256 15.8055 3.79193 15.8218 3.24129C15.8381 2.78855 16.1767 2.47448 16.6335 2.46632C17.1637 2.45817 17.694 2.45817 18.2242 2.46632C18.6851 2.47448 19.0155 2.80894 19.0318 3.26984C19.0359 3.54312 19.0277 3.81232 19.0318 4.0856Z" fill="white"/>
<path d="M8.34137 9.04124C8.17821 10.1874 9.02252 10.9093 9.84643 10.9216C10.7111 10.9338 11.4331 10.2078 11.4208 9.34307C11.4086 8.54771 10.7152 7.67893 9.57316 7.83392C10.4134 7.25882 12.0653 7.20579 13.1829 8.35601C14.3209 9.52661 14.3494 11.3417 13.2604 12.549C12.1836 13.7441 10.3726 13.8991 9.09594 12.8957C7.80297 11.876 7.66429 10.1466 8.34137 9.04124Z" fill="white"/>
</svg>
