<svg width="20" height="21" viewBox="0 0 20 21" fill="none" xmlns="http://www.w3.org/2000/svg">
<path d="M2.9976 0.0252719C2.60978 0.0697954 2.17308 0.215967 1.79006 0.425143C0.888622 0.923301 0.21875 1.89274 0.0408654 2.9613C0.00240384 3.18811 0 3.49306 0 10.5496V17.9018L0.0488782 18.1312C0.357372 19.5929 1.34215 20.6253 2.73638 20.9488L2.95513 21H17.0449L17.2636 20.9488C18.6579 20.6253 19.6426 19.5929 19.9511 18.1312L20 17.9018V10.5496C20 3.4939 19.9976 3.18811 19.9591 2.9613C19.9054 2.63367 19.7989 2.30353 19.6354 1.96246C19.1282 0.891378 18.109 0.150442 16.9655 0.0202316C16.7043 -0.00833064 3.2508 -0.00665051 2.9976 0.0252719ZM10.649 3.75852C11.3854 3.85513 11.9808 4.04162 12.6338 4.37597C13.2764 4.70611 13.6875 5.01778 14.2316 5.58566C14.7412 6.12246 15.024 6.52821 15.3237 7.1591C15.7412 8.03949 15.9792 9.08537 16.0192 10.2371C16.0345 10.6302 16.0232 10.7176 15.9375 10.8293C15.7748 11.0469 15.4175 11.0108 15.2949 10.7663C15.2564 10.6857 15.246 10.616 15.2324 10.3018C15.2107 9.81874 15.1787 9.50708 15.1146 9.13409C14.8622 7.67238 14.1939 6.50553 13.1274 5.66798C12.2388 4.96737 11.3205 4.62631 10.117 4.55238C9.70994 4.52802 9.63942 4.51206 9.54728 4.43813C9.3758 4.297 9.36779 3.96433 9.53205 3.80976C9.63301 3.71315 9.70353 3.69971 10.0521 3.71063C10.2356 3.7182 10.5032 3.74088 10.649 3.75852ZM5.75401 4.0013C5.82933 4.02818 5.94471 4.09118 6.01122 4.13571C6.41827 4.41881 7.55048 5.93849 7.92147 6.69706C8.13381 7.13054 8.20433 7.45144 8.13782 7.68918C8.06891 7.9454 7.95593 8.07981 7.44792 8.50824C7.24439 8.6813 7.05369 8.85855 7.02404 8.90559C6.94712 9.02236 6.88462 9.2517 6.88462 9.41299C6.88702 9.78766 7.11779 10.4681 7.42228 10.9915C7.65785 11.3981 8.07933 11.9189 8.4968 12.3179C8.98718 12.7892 9.41987 13.1101 9.90785 13.3638C10.5353 13.6914 10.9183 13.7746 11.1987 13.6377C11.2692 13.6041 11.3446 13.5587 11.3678 13.5385C11.3894 13.5184 11.5537 13.3075 11.734 13.074C12.0809 12.6162 12.1603 12.5422 12.3974 12.4565C12.6995 12.349 13.008 12.3776 13.3181 12.5439C13.5537 12.6716 14.0673 13.0068 14.3998 13.2487C14.8365 13.5696 15.77 14.3694 15.8966 14.5281C16.1194 14.8154 16.1579 15.1834 16.008 15.59C15.8494 16.0184 15.2332 16.8224 14.8021 17.1659C14.4127 17.4759 14.1362 17.5944 13.7724 17.6129C13.4728 17.6288 13.3486 17.6019 12.9655 17.4356C9.95914 16.136 7.55849 14.1963 5.65305 11.5316C4.65705 10.1413 3.89904 8.69726 3.38141 7.20026C3.07933 6.3266 3.0649 5.94773 3.3133 5.50081C3.42067 5.31264 3.8766 4.84556 4.20833 4.58514C4.76042 4.15419 5.01603 3.99458 5.21875 3.95005C5.35737 3.91813 5.59936 3.94249 5.75401 4.0013ZM10.7965 5.38572C12.0962 5.58566 13.1026 6.21823 13.762 7.24647C14.1322 7.82527 14.3638 8.50572 14.4431 9.23574C14.4712 9.50288 14.4712 9.99012 14.4407 10.0708C14.4127 10.1472 14.3229 10.2505 14.246 10.2934C14.1627 10.3379 13.9848 10.3337 13.8862 10.2799C13.7212 10.1926 13.6723 10.0531 13.6723 9.67593C13.6723 9.09461 13.5288 8.48136 13.2804 8.00588C12.9976 7.46236 12.5865 7.01377 12.0857 6.70126C11.6554 6.4316 11.0192 6.23167 10.4391 6.18294C10.2292 6.1653 10.1138 6.11994 10.0345 6.02333C9.91266 5.87716 9.89984 5.67975 10.0024 5.51593C10.1138 5.33448 10.2845 5.30508 10.7965 5.38572ZM11.2524 7.08097C11.6739 7.17506 11.9976 7.34391 12.274 7.61525C12.6298 7.96724 12.8245 8.39399 12.9103 9.00724C12.9679 9.40711 12.9447 9.5642 12.8093 9.69441C12.6827 9.81538 12.4495 9.82042 12.3085 9.70533C12.2059 9.62469 12.1739 9.539 12.1498 9.30798C12.1218 9.00052 12.0705 8.78462 11.9832 8.58553C11.7949 8.1613 11.4631 7.9412 10.9014 7.86895C10.6378 7.83535 10.5585 7.80343 10.4728 7.69842C10.3165 7.50269 10.3766 7.18682 10.5929 7.07005C10.6747 7.02721 10.7083 7.02301 10.8886 7.03393C11 7.04065 11.1651 7.06081 11.2524 7.08097Z" fill="white"/>
</svg>
