<svg width="25" height="21" viewBox="0 0 25 21" fill="none" xmlns="http://www.w3.org/2000/svg">
<path d="M0.927734 9.48605C0.927734 9.37975 0.927734 9.26882 0.927734 9.16251C1.05588 8.89905 1.27098 8.76039 1.54099 8.65871C3.10617 8.05784 4.66677 7.44773 6.22738 6.83763C10.2502 5.27075 14.2684 3.70388 18.2911 2.13701C19.989 1.47606 21.6824 0.815111 23.3803 0.154159C23.5771 0.0802066 23.7876 -0.00761234 23.9706 0.121805C24.1262 0.232734 24.2361 0.417615 24.3642 0.565521C24.3642 0.671827 24.3642 0.782756 24.3642 0.889063C24.3505 0.916795 24.3276 0.939906 24.323 0.967638C23.9661 2.71015 23.6137 4.45265 23.2521 6.19516C22.8174 8.3213 22.3734 10.4428 21.9341 12.569C21.4169 15.0833 20.8998 17.5977 20.378 20.1121C20.314 20.4264 20.0806 20.676 19.7922 20.6575C19.5955 20.6437 19.3804 20.5466 19.2156 20.4264C17.504 19.1831 15.7969 17.9259 14.0945 16.6733C13.5727 16.2897 13.2112 16.3036 12.7169 16.7103C11.7787 17.4822 10.836 18.2541 9.89776 19.0306C9.70555 19.1923 9.4996 19.257 9.26162 19.1923C8.93669 19.1045 8.84058 18.8226 8.75363 18.536C8.09918 16.4099 7.44473 14.2837 6.78571 12.1622C6.75368 12.0652 6.65299 11.9542 6.55688 11.9219C4.87272 11.2748 3.18397 10.6369 1.49523 10.0083C1.22521 9.90204 1.03299 9.74951 0.927734 9.48605ZM7.98935 11.8294C7.9985 11.8849 7.9985 11.9635 8.02138 12.0374C8.40123 13.3963 8.78109 14.7552 9.16551 16.1141C9.2067 16.2666 9.30281 16.3498 9.46757 16.3313C9.64147 16.3128 9.69182 16.188 9.7147 16.0447C9.79708 15.43 9.88403 14.8153 9.95268 14.1959C10.0213 13.5812 10.2364 13.0589 10.7124 12.6521C11.0739 12.3425 11.4034 12.0051 11.7513 11.6815C13.4949 10.0453 15.234 8.41374 16.9777 6.78216C17.7191 6.08423 18.4605 5.38631 19.2019 4.68838C19.298 4.60056 19.3895 4.48501 19.2659 4.38332C19.2065 4.33248 19.0509 4.34172 18.9731 4.38332C18.6847 4.54047 18.4101 4.72073 18.131 4.89175C15.7649 6.36618 13.3988 7.83599 11.0327 9.31042C10.1632 9.85119 9.29366 10.392 8.43327 10.942C8.12206 11.1407 8.00308 11.4504 7.98935 11.8294Z" fill="white"/>
</svg>
