<svg width="27" height="26" viewBox="0 0 27 26" fill="none" xmlns="http://www.w3.org/2000/svg">
<path d="M0 15.3867C0.036012 15.21 0.063021 15.0303 0.108036 14.8535C0.357119 13.8725 0.927309 13.1214 1.8006 12.5852C1.85462 12.5528 1.90864 12.4792 1.91464 12.4202C2.31077 7.88362 5.35679 4.15416 9.40814 2.61642C11.0167 2.00368 12.6852 1.75328 14.4078 1.85639C14.5879 1.86817 14.7679 1.87996 14.945 1.89763C15.3741 1.93593 15.6682 2.26586 15.6412 2.66945C15.6142 3.06419 15.2781 3.34699 14.852 3.33226C14.3688 3.31459 13.8826 3.26746 13.3995 3.27924C11.4218 3.32343 9.5972 3.88019 7.95565 4.97016C5.56986 6.55798 4.08136 8.74675 3.52918 11.5276C3.41514 12.0991 3.38813 12.6854 3.34612 13.2686C3.33411 13.4454 3.28009 13.5249 3.11504 13.578C2.6889 13.7135 2.30777 13.9256 2.01967 14.2702C1.42247 14.9861 1.28743 15.7874 1.67456 16.624C2.07069 17.4812 2.78793 17.9084 3.74825 17.9261C3.9073 17.929 4.06936 17.9143 4.22541 17.8936C4.34245 17.8789 4.40547 17.9113 4.45949 18.0144C4.87062 18.7921 5.36579 19.5198 5.96599 20.1708C7.58353 21.9265 9.57919 23.043 11.956 23.4112C15.3051 23.9327 18.2521 23.0518 20.7609 20.8012C21.5772 20.0706 22.2374 19.2134 22.7596 18.2619C22.8556 18.091 22.9577 18.0292 23.1527 18.038C23.8369 18.0675 24.4311 17.8495 24.9113 17.3604C25.9106 16.3412 25.6886 14.6738 24.4582 13.9374C24.3171 13.8549 24.125 13.8018 24.05 13.6781C23.975 13.5544 24.017 13.3629 24.014 13.2009C23.987 11.9401 23.7349 10.7264 23.2457 9.55981C22.9396 8.82629 22.5465 8.13696 22.0754 7.49182C21.9553 7.32685 21.8833 7.14715 21.9133 6.94094C21.9583 6.64341 22.1714 6.40774 22.4565 6.33704C22.7536 6.26339 23.0627 6.36061 23.2337 6.61984C23.5519 7.10002 23.879 7.58019 24.1521 8.08394C24.9383 9.53919 25.3615 11.1005 25.4635 12.7443C25.4665 12.815 25.5175 12.9034 25.5745 12.9475C26.3728 13.5839 26.8379 14.4028 26.973 15.4014C26.979 15.4427 26.991 15.4869 27 15.5281C27 15.7343 27 15.9405 27 16.1468C26.991 16.185 26.979 16.2204 26.973 16.2587C26.7509 17.9025 25.5595 19.1309 23.894 19.4255C23.7859 19.4461 23.7199 19.4903 23.6629 19.5816C23.2007 20.3034 22.6756 20.978 22.0513 21.5701C18.9393 24.5248 15.2421 25.6 11.0167 24.6868C7.82361 23.9975 5.37479 22.1975 3.62521 19.4844C3.57419 19.4019 3.51717 19.3636 3.41514 19.3518C1.70157 19.1721 0.423141 18.0498 0.072024 16.4207C0.045015 16.3029 0.024008 16.1821 0 16.0643C0 15.8374 0 15.6106 0 15.3867Z" fill="#66C3D0"/>
<path d="M13.2539 21.5612C10.3369 21.4256 7.94811 20.044 6.4236 17.2779C6.21653 16.9037 6.35157 16.4795 6.71469 16.291C7.08082 16.0995 7.51296 16.2262 7.71103 16.6033C8.27221 17.6697 9.06148 18.5358 10.1058 19.1632C13.3259 21.1045 17.5153 19.9645 19.2589 16.674C19.3939 16.4206 19.571 16.2409 19.8681 16.2085C20.1532 16.1791 20.3933 16.2763 20.5583 16.5119C20.7264 16.7506 20.7324 17.0069 20.6003 17.2661C20.2312 17.9908 19.754 18.6448 19.1718 19.2192C17.6113 20.751 15.7177 21.514 13.2539 21.5612Z" fill="#66C3D0"/>
<path d="M20.6807 3.57078C20.6657 5.93925 18.8381 7.63606 16.6353 7.51528C15.693 7.46226 14.8707 7.1117 14.1865 6.4695C13.8744 6.17786 13.8474 5.73893 14.1265 5.4414C14.4056 5.14387 14.8587 5.12325 15.1738 5.41194C15.645 5.84498 16.1912 6.0777 16.8364 6.0836C18.0968 6.09243 19.1712 5.09968 19.2102 3.89188C19.2522 2.56919 18.2949 1.50868 16.9864 1.44092C16.7314 1.42619 16.5003 1.37317 16.3352 1.16696C16.1462 0.934235 16.1131 0.674999 16.2422 0.406926C16.3772 0.130016 16.6173 -0.00843965 16.9324 0.00039793C18.0278 0.0298565 18.9521 0.442277 19.6903 1.23766C20.3536 1.9535 20.6717 2.8078 20.6807 3.57078Z" fill="#66C3D0"/>
<path d="M9.72083 11.722C10.5461 11.7368 11.2093 12.4084 11.1913 13.2156C11.1733 14.0257 10.4891 14.665 9.66081 14.6473C8.85054 14.6296 8.19032 13.9609 8.20533 13.1685C8.22333 12.3525 8.89556 11.7073 9.72083 11.722Z" fill="#66C3D0"/>
<path d="M18.8024 13.186C18.8054 13.9902 18.1392 14.6472 17.3169 14.6501C16.4886 14.6531 15.8134 13.9932 15.8164 13.186C15.8164 12.3789 16.4916 11.719 17.3169 11.7219C18.1362 11.7249 18.8024 12.3789 18.8024 13.186Z" fill="#66C3D0"/>
</svg>
