<svg width="25" height="25" viewBox="0 0 25 25" fill="none" xmlns="http://www.w3.org/2000/svg">
<path d="M13.0673 0C13.4088 0.0439519 13.7555 0.0781368 14.097 0.131856C17.2575 0.634861 19.6687 2.22201 21.3815 4.78588C22.2022 6.01165 22.6915 7.36927 22.8496 8.82457C22.8802 9.1127 22.9719 9.28851 23.2727 9.42036C24.5318 9.98197 25.2047 11.3347 24.9447 12.7216C24.7153 13.9718 23.5225 15.0267 22.192 15.139C21.9779 15.1585 21.8708 15.222 21.7944 15.4222C21.1062 17.2536 20.1784 18.9628 18.9499 20.5207C18.2362 21.4192 17.4257 22.225 16.4776 22.899C16.2992 23.0259 16.1258 23.1822 15.9882 23.3531C14.2703 25.5361 10.7428 25.5361 9.01979 23.3531C8.92803 23.2359 8.83628 23.1138 8.71393 23.0308C7.55678 22.2494 6.60353 21.2727 5.78281 20.1691C4.69703 18.7186 3.85592 17.1461 3.22382 15.4711C3.14226 15.2513 3.03521 15.1585 2.78033 15.139C1.20007 15.0023 -0.059033 13.6056 0.00213823 12.0721C0.0531142 10.7878 0.695412 9.87453 1.90864 9.33734C2.03608 9.27874 2.09725 9.21525 2.11254 9.07363C2.23489 7.926 2.53564 6.82232 3.0607 5.77724C3.96297 3.97032 5.30874 2.53456 7.0878 1.47971C8.40808 0.698347 9.8456 0.239294 11.3851 0.0586026C11.5686 0.0390684 11.7521 0.0195342 11.9407 0C12.3179 0 12.6901 0 13.0673 0ZM16.9109 20.5793C16.9415 20.5988 16.9669 20.6135 16.9975 20.633C17.0281 20.5842 17.0536 20.5256 17.0893 20.4865C18.1649 19.3291 19.0264 18.0349 19.6942 16.6285C20.051 15.8764 20.3467 15.095 20.6627 14.3234C20.8462 13.8693 21.0909 13.713 21.5956 13.7521C21.7281 13.7618 21.8657 13.7716 22.0034 13.757C22.8598 13.6739 23.4868 13.0293 23.5479 12.1747C23.604 11.4275 23.0382 10.7243 22.2379 10.5289C21.6618 10.3873 21.5038 10.2164 21.4732 9.65966C21.412 8.57063 21.1979 7.50113 20.6984 6.52442C19.0723 3.33546 16.4164 1.55785 12.6901 1.426C10.1209 1.33321 7.92381 2.2562 6.12435 3.99963C4.49312 5.58189 3.65712 7.5109 3.54497 9.72803C3.51948 10.1822 3.34106 10.3775 2.88738 10.5045C2.68347 10.5582 2.47447 10.6168 2.29606 10.7194C1.58239 11.1345 1.30203 11.9207 1.58239 12.6923C1.83727 13.3956 2.60701 13.84 3.42263 13.7521C3.9018 13.6984 4.18217 13.8595 4.34529 14.2893C4.42176 14.4895 4.48802 14.6897 4.56449 14.8851C5.26796 16.731 6.20591 18.4549 7.49561 19.9884C7.67402 20.1984 7.86773 20.3937 8.07673 20.6232C8.09712 20.5402 8.10732 20.5109 8.10732 20.4816C8.10732 19.5781 8.11242 18.6747 8.10222 17.7712C8.10222 17.6833 8.02066 17.5857 7.95949 17.5026C7.58736 16.9996 7.21014 16.5015 6.84821 15.9936C6.80233 15.9301 6.84312 15.8032 6.84312 15.7055C6.93487 15.7104 7.03173 15.7153 7.12348 15.7299C7.16426 15.7348 7.19485 15.7739 7.23053 15.7934C8.05634 16.2231 8.91274 16.4331 9.79972 15.9741C10.1617 15.7885 10.5032 15.5541 10.8396 15.3246C11.3698 14.9583 11.956 14.973 12.4403 15.3832C12.4658 15.4027 12.4964 15.4125 12.5269 15.432C12.8277 15.1195 13.2049 14.9925 13.6178 15.0902C13.8727 15.1536 14.1123 15.2953 14.3315 15.4418C14.8107 15.769 15.2949 16.0864 15.8863 16.1938C16.6152 16.3257 17.2524 16.0718 17.8743 15.7446C17.9559 15.7006 18.0731 15.7153 18.1751 15.7006C18.1751 15.8032 18.2159 15.935 18.1649 16.0083C17.8131 16.5064 17.441 16.985 17.0842 17.4831C17.0026 17.6003 16.9211 17.7517 16.9211 17.8884C16.9058 18.704 16.9109 19.5147 16.9109 20.3302C16.9109 20.4181 16.9109 20.4962 16.9109 20.5793ZM15.2083 18.5819C14.1225 18.7675 13.1285 18.7528 12.5065 17.6736C11.8642 18.7724 10.8651 18.7577 9.82011 18.5868C9.82011 19.3926 9.82011 20.1691 9.82011 20.9553C11.6298 19.7051 13.4139 19.7149 15.2134 20.9602C15.2083 20.1642 15.2083 19.3877 15.2083 18.5819Z" fill="white"/>
<path d="M8.18592 10.4459C8.8588 10.4459 9.39405 10.9587 9.39915 11.6033C9.39915 12.248 8.8588 12.7656 8.18592 12.7656C7.51304 12.7656 6.96759 12.2431 6.97269 11.6033C6.97269 10.9587 7.51304 10.4459 8.18592 10.4459Z" fill="white"/>
<path d="M16.7951 12.7607C16.1171 12.7411 15.6022 12.2186 15.6175 11.5691C15.6328 10.9147 16.1885 10.4215 16.8868 10.441C17.5393 10.4605 18.0644 10.9977 18.0389 11.6277C18.0185 12.2821 17.4679 12.7802 16.7951 12.7607Z" fill="white"/>
</svg>
