<svg width="15" height="21" viewBox="0 0 15 21" fill="none" xmlns="http://www.w3.org/2000/svg">
<path d="M3.29889 5.54673C3.29889 4.59132 3.31087 3.62923 3.29889 2.67383C3.27494 1.11712 4.311 -0.0454057 5.68842 0.00136249C6.56877 0.0280871 7.44313 0.0280871 8.32348 0.00136249C9.67695 -0.0387245 10.701 1.10375 10.695 2.63374C10.6891 4.65145 10.701 6.66248 10.6891 8.68019C10.6891 8.98084 10.7669 9.05434 11.0304 9.04766C11.7191 9.02761 12.4078 9.04097 13.0965 9.04766C13.2762 9.04766 13.4559 9.0677 13.6295 9.10111C14.0308 9.18796 14.1146 9.38171 13.8392 9.73582C13.4319 10.2636 12.9947 10.7647 12.5516 11.2591C11.1622 12.8158 9.76678 14.3659 8.3654 15.9092C8.11387 16.1898 7.84438 16.4504 7.5689 16.711C7.17364 17.0851 6.84425 17.1051 6.45498 16.7176C5.89803 16.1698 5.36502 15.5885 4.844 15.0073C3.36477 13.3704 1.89752 11.7268 0.430266 10.0832C0.298513 9.93625 0.184726 9.76254 0.0829168 9.58883C-0.0668028 9.3149 -0.0188925 9.19464 0.268569 9.12115C0.442244 9.07438 0.621907 9.05434 0.801571 9.04766C1.53819 9.04097 2.2808 9.03429 3.01742 9.04766C3.24499 9.05434 3.30488 8.96748 3.30488 8.72028C3.2929 7.66466 3.29889 6.60903 3.29889 5.54673Z" fill="#66C3D0"/>
<path d="M1 20L14 20" stroke="#66C3D0" stroke-linecap="round" stroke-linejoin="round"/>
</svg>
