<svg width="16" height="16" viewBox="0 0 16 16" fill="none" xmlns="http://www.w3.org/2000/svg">
<path d="M14.8438 16C10.2812 16 5.71875 16 1.15625 16C1.11875 15.9875 1.07812 15.9719 1.04062 15.9625C0.715625 15.8844 0.4375 15.7188 0.259375 15.4344C0.146875 15.2562 0.084375 15.0437 0 14.8438C0 10.7812 0 6.71875 0 2.65625C0.009375 2.6375 0.021875 2.62188 0.028125 2.60313C0.19375 1.89688 0.6875 1.50312 1.4125 1.50312C2.05312 1.50312 2.69062 1.50312 3.33125 1.50312C3.38437 1.50312 3.44062 1.50312 3.50312 1.50312C3.50312 1.19687 3.51562 0.91875 3.5 0.6375C3.48438 0.321875 3.60313 0.10625 3.90625 0C3.96875 0 4.03125 0 4.09375 0C4.39687 0.10625 4.51562 0.321875 4.5 0.6375C4.4875 0.921875 4.49687 1.20625 4.49687 1.49063C5.50937 1.49063 6.50313 1.49063 7.50313 1.49063C7.50313 1.19688 7.5125 0.915625 7.5 0.6375C7.48438 0.321875 7.60313 0.10625 7.90625 0C7.96875 0 8.03125 0 8.09375 0C8.39688 0.10625 8.51562 0.321875 8.5 0.6375C8.4875 0.921875 8.49687 1.20625 8.49687 1.49063C9.50937 1.49063 10.5031 1.49063 11.5031 1.49063C11.5031 1.19688 11.5125 0.915625 11.5 0.6375C11.4844 0.321875 11.6031 0.10625 11.9062 0C11.9688 0 12.0312 0 12.0938 0C12.3969 0.10625 12.5156 0.321875 12.5 0.6375C12.4875 0.921875 12.4969 1.20625 12.4969 1.50312C12.5719 1.50312 12.6281 1.50312 12.6844 1.50312C13.3438 1.50312 14.0062 1.49375 14.6656 1.50625C15.2062 1.51562 15.6094 1.76562 15.8562 2.25C15.9219 2.37812 15.9531 2.52187 16 2.65625C16 6.71875 16 10.7812 16 14.8438C15.9906 14.8625 15.9781 14.8781 15.9719 14.8969C15.8469 15.4781 15.4938 15.8344 14.9125 15.9688C14.8906 15.975 14.8656 15.9906 14.8438 16ZM3.50312 2.49688C2.7875 2.49688 2.09688 2.49688 1.40313 2.49688C1.1125 2.49688 0.99375 2.61563 0.99375 2.90313C0.99375 6.80313 0.99375 10.7031 0.99375 14.6031C0.99375 14.8781 1.11563 15.0031 1.39688 15.0031C5.79688 15.0031 10.1969 15.0031 14.5969 15.0031C14.8844 15.0031 15.0031 14.8812 15.0031 14.5906C15.0031 10.6969 15.0031 6.8 15.0031 2.90625C15.0031 2.61562 14.8844 2.49688 14.5969 2.49688C13.9469 2.49688 13.2937 2.49688 12.6438 2.49688C12.6 2.49688 12.5531 2.50312 12.4937 2.50625C12.4937 2.84375 12.4969 3.16875 12.4937 3.49688C12.4875 3.78125 12.2719 3.99688 12 3.99688C11.7281 3.99688 11.5125 3.78437 11.5031 3.49688C11.5 3.36563 11.5031 3.2375 11.5031 3.10625C11.5031 2.90625 11.5031 2.70625 11.5031 2.50625C10.4875 2.50625 9.49687 2.50625 8.49375 2.50625C8.49375 2.83437 8.49375 3.15313 8.49375 3.46875C8.49375 3.69375 8.39688 3.8625 8.1875 3.95312C7.85938 4.09375 7.50938 3.85938 7.50313 3.4875C7.49688 3.1625 7.50313 2.83437 7.50313 2.50312C6.49375 2.50312 5.50312 2.50312 4.5125 2.50312C4.50625 2.52187 4.49687 2.53125 4.49687 2.54063C4.49375 2.8375 4.49375 3.13438 4.49375 3.43125C4.49375 3.76562 4.29375 3.99375 4 3.99688C3.70625 3.99688 3.50312 3.76875 3.50312 3.4375C3.50312 3.12812 3.50312 2.82188 3.50312 2.49688Z" fill="white"/>
<path d="M5.49258 6.01245C5.49258 6.50933 5.49258 6.99058 5.49258 7.48433C4.83633 7.48433 4.1832 7.48433 3.51758 7.48433C3.51758 6.99995 3.51758 6.51245 3.51758 6.01245C4.17383 6.01245 4.82383 6.01245 5.49258 6.01245Z" fill="white"/>
<path d="M7.01172 6.0094C7.67109 6.0094 8.31797 6.0094 8.98047 6.0094C8.98047 6.50002 8.98047 6.98752 8.98047 7.48752C8.32734 7.48752 7.67422 7.48752 7.01172 7.48752C7.01172 7.00002 7.01172 6.51252 7.01172 6.0094Z" fill="white"/>
<path d="M10.5176 6.0094C11.1801 6.0094 11.827 6.0094 12.4863 6.0094C12.4863 6.50002 12.4863 6.98752 12.4863 7.4844C11.8363 7.4844 11.1832 7.4844 10.5176 7.4844C10.5176 7.00002 10.5176 6.51252 10.5176 6.0094Z" fill="white"/>
<path d="M3.51172 9.98433C3.51172 9.49058 3.51172 9.0062 3.51172 8.51245C4.17109 8.51245 4.82422 8.51245 5.48672 8.51245C5.48672 9.00308 5.48672 9.48745 5.48672 9.98433C4.83359 9.98433 4.18047 9.98433 3.51172 9.98433Z" fill="white"/>
<path d="M7.00781 9.98438C7.00781 9.4875 7.00781 9.00625 7.00781 8.51562C7.66719 8.51562 8.32031 8.51562 8.98281 8.51562C8.98281 9 8.98281 9.4875 8.98281 9.98438C8.33281 9.98438 7.67656 9.98438 7.00781 9.98438Z" fill="white"/>
<path d="M10.5078 9.98438C10.5078 9.4875 10.5078 9.00625 10.5078 8.51562C11.1672 8.51562 11.8203 8.51562 12.4828 8.51562C12.4828 9 12.4828 9.4875 12.4828 9.98438C11.8328 9.98438 11.1766 9.98438 10.5078 9.98438Z" fill="white"/>
<path d="M5.48945 12.4906C4.83008 12.4906 4.18008 12.4906 3.51758 12.4906C3.51758 12 3.51758 11.5093 3.51758 11.0125C4.17383 11.0125 4.82695 11.0125 5.48945 11.0125C5.48945 11.5031 5.48945 11.9875 5.48945 12.4906Z" fill="white"/>
<path d="M8.99258 11.0156C8.99258 11.5125 8.99258 11.9937 8.99258 12.4844C8.3332 12.4844 7.68008 12.4844 7.01758 12.4844C7.01758 12 7.01758 11.5125 7.01758 11.0156C7.66758 11.0156 8.32383 11.0156 8.99258 11.0156Z" fill="white"/>
<path d="M10.5078 12.4875C10.5078 11.9938 10.5078 11.5125 10.5078 11.0188C11.1641 11.0188 11.8203 11.0188 12.4859 11.0188C12.4859 11.5063 12.4859 11.9938 12.4859 12.4875C11.8297 12.4875 11.1766 12.4875 10.5078 12.4875Z" fill="white"/>
</svg>
