<svg width="45" height="44" viewBox="0 0 45 44" fill="none" xmlns="http://www.w3.org/2000/svg">
<path d="M22.5417 0.27272C23.3351 0.460694 24.1199 0.648668 24.7926 1.15278C26.6381 2.51132 26.9054 5.16004 25.3531 6.83471C24.9651 7.26192 24.4649 7.32173 24.0509 7.0056C23.637 6.68091 23.6284 6.1768 23.9388 5.67269C24.1717 5.29674 24.439 4.88662 24.4994 4.45941C24.6546 3.45118 23.9992 2.57967 22.9471 2.2379C21.4206 1.75088 19.9373 2.46859 19.325 4.01511C18.8507 5.2113 18.9973 6.34769 19.6872 7.43281C19.8511 7.68059 20.0235 7.73186 20.2909 7.68914C22.145 7.44135 23.9906 7.49262 25.8275 7.76603C28.7079 8.20179 31.3727 9.21001 33.796 10.8078C36.9006 12.8584 39.2032 15.5926 40.6261 19.0103C40.997 19.8989 41.2298 20.8473 41.5144 21.7701C41.592 22.0264 41.6869 22.1631 41.9801 22.2315C43.6014 22.5989 44.7829 24.0941 44.7829 25.7432C44.7829 27.4093 43.6014 28.9302 41.9715 29.289C41.6696 29.3574 41.5748 29.5026 41.5144 29.759C40.8245 32.7494 39.4274 35.3811 37.3663 37.6539C35.4259 39.7985 33.1061 41.4048 30.4154 42.4984C27.7851 43.575 25.0513 44.062 22.2226 43.9937C18.4367 43.8997 14.9095 42.8829 11.7446 40.7981C7.73442 38.158 5.06962 34.5266 3.92263 29.8615C3.83639 29.5197 3.71566 29.3488 3.3362 29.2634C1.77527 28.9045 0.619661 27.3666 0.636909 25.7346C0.654157 24.1197 1.81839 22.633 3.37932 22.2571C3.65529 22.1887 3.81915 22.1033 3.89676 21.8043C5.6043 15.1739 9.84728 10.8676 16.2721 8.57774C16.7982 8.38976 17.3415 8.25306 17.8676 8.09072C17.6951 7.56952 17.4881 7.06541 17.3587 6.55275C16.7551 4.25434 18.0228 1.58854 20.1529 0.665756C20.5841 0.477783 21.0498 0.400884 21.5069 0.27272C21.8518 0.27272 22.1968 0.27272 22.5417 0.27272ZM40.997 27.5887C42.1095 27.5887 42.9201 26.8454 42.9546 25.7944C42.9891 24.8375 42.1698 23.9318 41.1781 23.9659C40.3761 23.9916 40.0225 23.6413 39.8759 22.8296C39.5309 20.89 38.8151 19.0786 37.7544 17.4125C35.3483 13.6274 31.916 11.2094 27.5867 10.0132C27.4229 9.97045 27.19 10.0217 27.0434 10.1072C24.5339 11.628 21.9036 11.5426 19.5406 9.85083C19.4026 9.75685 19.1698 9.71413 18.9973 9.7483C16.5481 10.2097 14.3145 11.1752 12.2792 12.5935C9.63169 14.4391 7.64818 16.84 6.44945 19.8305C6.02688 20.89 5.79403 22.0349 5.48357 23.1372C5.31971 23.7182 5.03512 23.9489 4.44869 23.9489C3.32758 23.9489 2.50831 24.6922 2.48243 25.7261C2.45656 26.7257 3.22409 27.5118 4.32796 27.5973C5.10411 27.6571 5.39733 27.9049 5.54393 28.6653C6.15624 31.7925 7.54469 34.5181 9.78692 36.8165C13.3486 40.4649 17.7468 42.1481 22.8177 42.1823C25.3445 42.1994 27.7851 41.6867 30.0963 40.6614C33.5631 39.132 36.2711 36.7652 38.1425 33.4672C39.0221 31.9121 39.5826 30.2545 39.9276 28.5115C40.0656 27.8109 40.3502 27.5887 40.997 27.5887Z" fill="#3D3185"/>
<path d="M23.0762 36.7396C20.9288 36.6798 19.1609 36.5346 17.5223 35.8083C16.91 35.5434 16.3408 35.1675 15.8062 34.7744C15.2801 34.39 15.237 33.8175 15.5906 33.3988C15.9441 32.9887 16.453 32.9716 16.9618 33.3817C18.0398 34.2532 19.3247 34.5779 20.6614 34.7488C22.8088 35.0137 24.9389 34.971 26.9914 34.202C27.5175 34.0055 28.0091 33.6808 28.4747 33.3646C29.0181 33.0058 29.501 32.9972 29.8546 33.4245C30.1995 33.8346 30.1305 34.3729 29.6476 34.783C28.4661 35.7998 27.0345 36.2526 25.534 36.4833C24.594 36.6286 23.6453 36.6798 23.0762 36.7396Z" fill="#3D3185"/>
<path d="M26.4062 26.6061C26.4235 26.5378 26.4407 26.384 26.5011 26.2644C27.1479 25.1194 28.0534 24.2821 29.3815 24.0258C30.9769 23.7182 32.2015 24.4017 33.1847 25.5808C33.3485 25.7773 33.4951 25.9909 33.6159 26.2216C33.8746 26.7172 33.728 27.2128 33.2709 27.4776C32.8483 27.7254 32.3568 27.5887 32.0377 27.1444C31.8738 26.9137 31.71 26.6745 31.5203 26.4694C30.6579 25.5552 29.4246 25.5723 28.5881 26.5121C28.3811 26.7428 28.2087 27.0163 28.0103 27.2555C27.7343 27.5887 27.3635 27.6742 26.9668 27.5204C26.6046 27.3666 26.4149 27.0761 26.4062 26.6061Z" fill="#3D3185"/>
<path d="M15.5467 23.9403C17.0214 24.0428 18.1684 24.8973 18.9273 26.29C19.1688 26.7257 18.9791 27.2298 18.5651 27.4776C18.1512 27.7169 17.6682 27.5973 17.3491 27.1871C17.1249 26.8966 16.9179 26.5805 16.642 26.3327C15.8055 25.5723 14.7533 25.615 13.9599 26.4181C13.7357 26.6488 13.5546 26.9308 13.3476 27.1871C13.0199 27.6058 12.5542 27.7083 12.1317 27.4691C11.7091 27.2298 11.5366 26.7343 11.7781 26.2814C12.468 24.9998 13.7616 23.9574 15.5467 23.9403Z" fill="#3D3185"/>
</svg>
