<svg width="43" height="34" viewBox="0 0 43 34" fill="none" xmlns="http://www.w3.org/2000/svg">
<path d="M42.3811 2.5343C42.3811 8.33662 42.3811 14.1309 42.3811 19.9332C41.9102 20.7829 41.4638 21.6407 40.9686 22.4742C39.5236 24.8696 37.9813 27.1922 35.9031 29.1101C34.6692 30.2511 33.3055 31.1737 31.5764 31.4084C31.4221 31.4326 31.2679 31.5055 31.1299 31.5864C29.896 32.2581 28.6134 32.8245 27.2578 33.213C25.4637 33.7309 23.621 33.9251 21.7702 33.8928C20.3333 33.8685 18.8803 33.7633 17.4597 33.5529C15.5195 33.2615 13.7336 32.5089 12.0208 31.5702C11.826 31.465 11.5906 31.4245 11.3714 31.3598C10.8437 31.198 10.2917 31.0927 9.79655 30.8662C8.2623 30.1702 7.07712 29.0211 5.98934 27.7829C3.91121 25.3956 2.27955 22.717 0.818359 19.9332C0.818359 14.1309 0.818359 8.33662 0.818359 2.5343C0.842713 2.47765 0.883301 2.41291 0.891419 2.35626C1.07813 1.29614 1.62201 0.721577 2.69355 0.673022C3.70015 0.624467 4.71486 0.6973 5.72958 0.753947C7.28006 0.834872 8.80619 1.09383 10.2917 1.57129C10.4216 1.61175 10.584 1.61985 10.7139 1.57129C13.2953 0.648745 15.9822 0.405969 18.6854 0.373599C21.4698 0.333137 24.2542 0.422154 27.0305 0.527357C28.8813 0.600189 30.6997 0.92389 32.4531 1.55511C32.5992 1.61175 32.794 1.60366 32.9483 1.55511C35.3268 0.778225 37.7945 0.656837 40.2623 0.624467C41.0173 0.616374 41.6829 0.875335 42.0563 1.59557C42.2106 1.87881 42.2755 2.2106 42.3811 2.5343ZM15 6.08691C15.2598 7.10656 15.3328 8.07766 15.138 9.05686C14.8782 10.384 14.2613 11.5332 13.4252 12.5852C12.5241 13.71 11.4444 14.6488 10.2917 15.5066C10.105 15.6442 10.032 15.7655 10.105 16.0083C10.4135 17.0118 10.6733 18.0314 10.9899 19.0268C12.0533 22.369 12.5403 25.8083 12.7433 29.2962C12.7676 29.7656 12.8326 30.1702 13.3765 30.3159C13.5713 30.3644 13.7336 30.4939 13.9203 30.5829C15.755 31.465 17.6789 31.9667 19.7083 32.0881C21.7134 32.2095 23.7022 32.1691 25.6829 31.813C26.0807 31.7402 26.2593 31.6269 26.2593 31.1575C26.2755 29.7008 26.3486 28.2523 26.446 26.7956C26.4866 26.1725 26.8762 25.8569 27.3876 25.9135C27.8828 25.9621 28.1994 26.3748 28.1751 26.9575C28.1507 27.5078 28.0695 28.0581 28.0614 28.6084C28.0371 29.4257 28.0533 30.243 28.0533 31.1413C28.8164 30.769 29.5551 30.413 30.2775 30.0488C30.3425 30.0164 30.375 29.8708 30.3831 29.7737C30.4886 28.7055 30.5454 27.6211 30.6997 26.5609C30.927 24.9101 31.138 23.2511 31.5114 21.6326C31.9498 19.739 32.5424 17.8777 33.0863 16.0002C33.1512 15.7817 33.1106 15.6603 32.9402 15.5228C32.2745 14.9806 31.5926 14.4384 30.9675 13.8476C29.3927 12.3586 28.1751 10.6592 27.9965 8.41755C27.8666 6.81523 28.2319 5.3424 29.2141 4.05569C29.5713 3.59442 30.0178 3.19788 30.4886 2.69615C24.5464 1.7817 18.6692 1.7736 12.7352 2.70424C13.206 3.19788 13.6525 3.57014 13.9609 4.02332C14.2207 4.40367 14.5048 4.39557 14.8782 4.35511C16.3881 4.22563 17.8899 4.11234 19.3998 4.00713C19.7326 3.98286 20.0898 4.05569 20.2278 4.38748C20.3333 4.63835 20.3658 4.96205 20.2928 5.22101C20.1791 5.61754 19.7976 5.72275 19.416 5.74702C18.7017 5.78749 17.9792 5.78749 17.273 5.84413C16.5343 5.90887 15.7955 6.00598 15 6.08691ZM2.54743 18.2095C2.6692 18.1609 2.7179 18.1447 2.76661 18.1205C4.19533 17.295 5.64028 16.5101 7.03653 15.6442C8.92796 14.4788 10.7301 13.2083 12.1263 11.4361C13.2709 9.9875 13.8148 8.37709 13.3196 6.54009C12.865 4.84066 11.6068 3.91812 10.0482 3.33546C8.01065 2.57476 5.8757 2.41291 3.7245 2.38054C2.52308 2.36436 2.53931 2.37245 2.54743 3.57823C2.55555 7.2846 2.54743 10.991 2.55555 14.6973C2.54743 15.8384 2.54743 16.9956 2.54743 18.2095ZM40.652 18.2338C40.652 18.0153 40.652 17.8939 40.652 17.7806C40.652 14.1956 40.6601 10.6106 40.6601 7.02564C40.6601 5.74702 40.6601 4.46841 40.6439 3.1817C40.6357 2.34817 40.6276 2.33199 39.8159 2.37245C38.5657 2.43719 37.3075 2.50193 36.0655 2.63141C34.8559 2.7528 33.687 3.0684 32.5667 3.57823C30.1558 4.6869 29.1329 7.00136 29.9853 9.50195C30.4561 10.8939 31.4059 11.9621 32.4693 12.9332C34.0442 14.3655 35.8463 15.4904 37.6728 16.5586C38.6307 17.1089 39.6048 17.643 40.652 18.2338ZM11.0061 29.4904C10.8762 25.1043 9.90208 20.9124 8.49772 16.8095C6.61441 17.902 4.74733 18.9783 2.85591 20.0788C3.00202 20.3459 3.14814 20.613 3.30238 20.88C4.78792 23.4372 6.40335 25.9055 8.58701 27.9448C9.28513 28.6083 10.0644 29.1748 11.0061 29.4904ZM32.1933 29.4823C33.2324 29.1344 34.0685 28.4546 34.8478 27.7101C36.2765 26.3586 37.4455 24.7887 38.5089 23.1459C39.1583 22.1424 39.7428 21.1066 40.3597 20.0869C38.4358 18.9783 36.5688 17.8939 34.6936 16.8095C33.3055 20.9124 32.3151 25.1043 32.1933 29.4823Z" fill="#3D3185"/>
<path d="M26.6973 24.3029C26.6973 24.8451 27.0464 25.2173 27.5497 25.2173C28.0367 25.2173 28.4101 24.8289 28.4101 24.3352C28.4101 23.8497 28.0286 23.437 27.5659 23.4289C27.0951 23.4127 26.7054 23.8092 26.6973 24.3029ZM22.0702 4.06353C21.5831 4.05544 21.2016 4.42769 21.1935 4.92134C21.1854 5.3907 21.5831 5.77105 22.0864 5.77105C22.5248 5.77105 22.9144 5.3907 22.9144 4.95371C22.9144 4.43578 22.5654 4.07162 22.0702 4.06353Z" fill="#3D3185"/>
<path d="M26.6973 24.3029C26.6973 23.8173 27.095 23.4208 27.5659 23.4289C28.0286 23.437 28.4182 23.8497 28.4101 24.3352C28.4101 24.8289 28.0367 25.2173 27.5496 25.2173C27.0463 25.2173 26.6973 24.8451 26.6973 24.3029Z" fill="#3D3185"/>
<path d="M22.0701 4.06353C22.5653 4.07162 22.9143 4.43579 22.9143 4.94561C22.9062 5.38261 22.5247 5.76296 22.0863 5.76296C21.5911 5.76296 21.1934 5.38261 21.1934 4.91324C21.2015 4.42769 21.583 4.05544 22.0701 4.06353Z" fill="#3D3185"/>
<path d="M8.18897 10.6427C6.65472 10.6023 5.5913 9.42885 5.62377 8.02075C5.65624 6.51555 6.80896 5.46352 8.27826 5.47971C9.74757 5.49589 10.8435 6.70977 10.8029 8.1826C10.7623 9.54214 9.54463 10.6913 8.18897 10.6427ZM7.36908 8.0774C7.3772 8.53058 7.76685 8.91902 8.22144 8.91902C8.6598 8.91902 9.0738 8.5144 9.08192 8.06931C9.08192 7.59994 8.67603 7.20341 8.19709 7.2196C7.71814 7.23578 7.36096 7.60804 7.36908 8.0774Z" fill="#3D3185"/>
<path d="M37.6082 8.04503C37.6245 9.46931 36.5042 10.6104 35.0674 10.6427C33.6305 10.667 32.4454 9.51787 32.4454 8.08549C32.4372 6.65312 33.5818 5.49589 35.0349 5.47161C36.4149 5.44734 37.592 6.62075 37.6082 8.04503ZM34.1825 8.04503C34.1744 8.52249 34.556 8.91902 35.043 8.91902C35.4814 8.92712 35.8873 8.5144 35.8873 8.06122C35.8873 7.60804 35.4976 7.2196 35.0349 7.2196C34.5478 7.2196 34.1907 7.57567 34.1825 8.04503Z" fill="#3D3185"/>
</svg>
