<svg width="36" height="41" viewBox="0 0 36 41" fill="none" xmlns="http://www.w3.org/2000/svg">
<path d="M2.53545 41C1.49125 40.6782 0.784649 40.0269 0.454901 38.9595C0.258623 38.316 0.423497 37.696 0.525562 37.0682C0.847459 35.0748 1.18506 33.0892 1.51481 31.1037C1.86811 29.0004 2.22926 26.8971 2.58256 24.786C2.93586 22.6828 3.27346 20.5716 3.64247 18.4684C3.97221 16.5692 4.28626 14.6699 4.67097 12.7786C4.83584 11.9781 5.33831 11.3424 6.06847 10.9343C6.5945 10.6439 7.10482 10.7459 7.37176 11.1933C7.63085 11.6171 7.48953 12.0958 6.98705 12.4254C6.52384 12.7236 6.31971 13.1788 6.23334 13.6889C5.85649 15.8785 5.49534 18.076 5.12633 20.2734C4.82014 22.0785 4.50609 23.8913 4.20775 25.6964C3.88585 27.6348 3.57181 29.5812 3.24206 31.5196C2.88876 33.6386 2.51975 35.7575 2.18215 37.8765C2.13505 38.1669 2.19 38.5043 2.30777 38.7712C2.50405 39.2028 2.78669 39.2813 3.24206 39.1165C6.68086 37.8765 10.1118 36.6365 13.5428 35.3965C13.9118 35.2631 14.2729 35.1219 14.6419 35.0041C15.3564 34.7687 15.8117 35.0826 15.9688 35.8282C16.0551 36.252 16.22 36.6679 16.4163 37.0603C16.5497 37.3271 16.7931 37.4135 17.1386 37.335C21.3861 36.3932 25.6492 35.4829 29.8967 34.5568C30.0773 34.5176 30.25 34.4626 30.4227 34.4155C31.1215 34.2272 31.5219 33.7798 31.624 33.05C31.938 30.8211 32.2756 28.5923 32.5975 26.3635C32.8487 24.6369 33.1078 22.9103 33.3591 21.1838C33.469 20.4225 33.5789 19.6613 33.6888 18.9C33.7438 18.5625 33.626 18.2957 33.3198 18.1623C32.5347 17.817 31.7653 17.4089 30.9488 17.197C29.9831 16.9537 29.7004 16.3573 29.5984 15.4626C29.3942 13.7439 29.1116 12.033 28.8603 10.3221C28.719 9.37253 28.5699 8.41507 28.4364 7.46546C28.3736 7.04951 28.1851 6.72775 27.8475 6.45307C27.6277 6.27256 27.4314 6.01358 27.3451 5.74674C27.243 5.41713 27.4 5.10321 27.6984 4.89916C28.036 4.67942 28.3893 4.70296 28.719 4.9227C29.6769 5.5427 30.093 6.46876 30.2343 7.57533C30.4306 9.11354 30.6818 10.6361 30.9016 12.1743C31.043 13.1631 31.1921 14.1598 31.3178 15.1565C31.3492 15.3841 31.4355 15.494 31.6475 15.5725C32.4012 15.855 33.1706 16.1061 33.8929 16.4593C34.7173 16.8595 35.3846 17.4638 35.4475 18.4605C35.4789 18.9471 35.3689 19.4415 35.2983 19.9359C34.945 22.4002 34.5838 24.8567 34.2227 27.3209C33.9479 29.2045 33.6338 31.0801 33.3905 32.9636C33.2648 33.9133 33.0058 34.7687 32.252 35.4122C31.6711 35.9145 30.9566 36.1264 30.2343 36.2834C27.5414 36.872 24.8406 37.4527 22.1476 38.0335C20.5381 38.3866 18.9208 38.7476 17.3113 39.0929C16.3378 39.3048 15.3799 38.834 14.8068 37.8765C14.6419 37.6018 14.5085 37.3036 14.3436 36.9818C13.4328 37.3114 12.5143 37.6332 11.6035 37.9628C8.98125 38.9124 6.35111 39.8699 3.72883 40.8274C3.56396 40.8901 3.39123 40.9451 3.2185 41C3.00652 41 2.77099 41 2.53545 41Z" fill="#3D3185"/>
<path d="M22.5561 0.818176C23.0743 1.01438 23.616 1.15564 24.1028 1.40678C25.3904 2.07386 26.2147 3.76903 26.042 5.18952C25.8222 6.97886 24.8565 8.14037 23.1606 8.69758C23.09 8.72112 23.0193 8.76036 22.9408 8.79176C22.9408 9.62364 22.9487 10.4477 22.9408 11.2639C22.933 11.9937 22.4619 12.4175 21.8417 12.2763C21.4177 12.1821 21.1665 11.8211 21.1665 11.2639C21.1586 10.4398 21.1665 9.6158 21.1665 8.77606C20.3735 8.55632 19.6747 8.20316 19.133 7.59101C18.1045 6.4295 17.7434 5.08749 18.2458 3.61207C18.7562 2.10525 19.8318 1.17918 21.4177 0.88096C21.4648 0.873112 21.5119 0.84172 21.559 0.818176C21.8731 0.818176 22.2107 0.818176 22.5561 0.818176ZM24.2912 4.86775C24.2912 3.60422 23.3255 2.60752 22.0615 2.57613C20.8367 2.55259 19.8004 3.56498 19.7925 4.81281C19.7847 6.08419 20.7661 7.08874 22.0144 7.09659C23.2941 7.09659 24.2834 6.12343 24.2912 4.86775Z" fill="#3D3185"/>
<path d="M13.9986 18.9863C13.9986 19.3395 13.9986 19.6926 13.9986 20.0458C13.9908 20.6501 13.661 21.0425 13.1428 21.0582C12.6168 21.066 12.2635 20.6658 12.2635 20.0379C12.2556 19.3081 12.2478 18.5782 12.2714 17.8405C12.2792 17.5815 12.1771 17.4795 11.9495 17.4089C10.3949 16.9066 9.43709 15.8157 9.17015 14.2383C8.809 12.0879 10.1515 10.2358 12.0829 9.70996C14.4069 9.07427 16.7465 10.6203 17.1234 12.9983C17.4217 14.8583 16.2205 16.8281 14.4226 17.3853C14.0928 17.4873 13.9593 17.6286 13.9986 17.9818C14.03 18.3035 13.9986 18.6488 13.9986 18.9863ZM13.1193 15.8314C14.3676 15.8393 15.3804 14.8426 15.4118 13.5869C15.4354 12.3783 14.3833 11.3345 13.1428 11.3266C11.8866 11.3266 10.8581 12.3312 10.8581 13.5633C10.8581 14.8112 11.8709 15.8236 13.1193 15.8314Z" fill="#3D3185"/>
<path d="M22.3831 30.6642C22.3831 30.2875 22.3674 29.9029 22.391 29.5262C22.4067 29.2751 22.3282 29.1573 22.0848 29.0867C20.6166 28.6315 19.7216 27.627 19.3369 26.1673C18.9129 24.5898 19.7059 22.7298 21.1034 21.8665C23.6707 20.2734 26.8426 21.8901 27.243 24.7232C27.5178 26.7009 26.3401 28.4589 24.5422 29.0632C24.2046 29.1809 24.1104 29.3143 24.1183 29.6518C24.1418 30.3581 24.1261 31.0644 24.1261 31.7707C24.1261 32.3515 23.7492 32.7517 23.2389 32.7517C22.76 32.7439 22.4146 32.3593 22.3989 31.81C22.3831 31.4176 22.391 31.0409 22.3831 30.6642C22.391 30.6642 22.391 30.6642 22.3831 30.6642ZM23.2546 27.5093C24.503 27.5093 25.5315 26.489 25.5236 25.2569C25.5158 24.0247 24.4794 22.9967 23.2468 23.0045C21.9906 23.0124 20.9699 24.0247 20.9778 25.2647C20.9935 26.5204 21.9906 27.5093 23.2546 27.5093Z" fill="#3D3185"/>
<path d="M10.5352 7.02594C10.8571 5.69178 11.0926 4.32622 11.5323 3.02345C11.8227 2.16017 12.5372 1.56372 13.5264 1.48524C13.8405 1.4617 14.1702 1.53233 14.4843 1.59512C15.0967 1.71284 15.7091 1.8384 16.3136 1.99536C16.8632 2.13663 17.1223 2.59181 16.9809 3.09409C16.8553 3.55712 16.3921 3.80041 15.8661 3.68269C15.2458 3.54927 14.6178 3.4237 13.9975 3.27459C13.6442 3.18826 13.3537 3.26674 13.2124 3.60421C13.024 4.06724 12.8591 4.54597 12.7492 5.03254C12.6 5.70747 12.5293 6.39025 12.4116 7.07303C12.3174 7.61454 11.9091 7.9834 11.4616 7.94416C11.0219 7.91276 10.6451 7.49682 10.6372 7.04164C10.6058 7.04164 10.5744 7.03379 10.5352 7.02594Z" fill="#3D3185"/>
<path d="M22.0538 5.71534C21.4885 5.72319 21.0567 5.34648 21.0646 4.84421C21.0646 4.35763 21.4807 3.97308 22.0145 3.95739C22.5798 3.94169 23.0352 4.34194 23.0273 4.85206C23.0195 5.34648 22.6191 5.70749 22.0538 5.71534Z" fill="#3D3185"/>
<path d="M14.0936 13.5555C14.1015 14.0813 13.701 14.458 13.1358 14.4659C12.6019 14.4737 12.1465 14.0656 12.1387 13.5712C12.1387 13.0925 12.5548 12.7001 13.0965 12.6922C13.6696 12.6765 14.0858 13.0375 14.0936 13.5555Z" fill="#3D3185"/>
<path d="M24.2205 25.2726C24.2127 25.7827 23.773 26.1751 23.2313 26.1516C22.6895 26.128 22.2734 25.7513 22.2734 25.2647C22.2734 24.7625 22.7131 24.3622 23.2548 24.3701C23.8201 24.3779 24.2284 24.7546 24.2205 25.2726Z" fill="#3D3185"/>
</svg>
